<svg width="99" height="95" viewBox="0 0 99 95" fill="none" xmlns="http://www.w3.org/2000/svg">
<g clip-path="url(#clip0_25_121)">
<path d="M43.5459 18.3872H13.3174V95.0001H43.5459V18.3872Z" fill="white"/>
<path d="M77.8144 18.3872H47.5859V95.0001H77.8144V18.3872Z" fill="white"/>
<path fill-rule="evenodd" clip-rule="evenodd" d="M3.92242 7.35938H9.74733H81.3843H87.2092V13.0937V89.2423H91.1317V94.9999H87.2092H81.3843V89.2423V13.0937H9.74733V89.2423V94.9999H3.92242H0V89.2423H3.92242V13.0937V7.35938Z" fill="white"/>
<path d="M53.1053 0.510742H50.1929V3.36631H53.1053V0.510742Z" fill="white"/>
<path d="M52.5652 1.04472H50.7097V2.85557H52.5652V1.04472ZM50.2165 0H53.6457V3.90029H49.6763V0H50.2165Z" fill="white"/>
<path d="M64.7083 1.04472H62.8528V2.85557H64.7083V1.04472ZM62.3596 0H65.7653V3.90029H61.8194V0H62.3596ZM28.1852 1.04472H26.3297V2.85557H28.1852V1.04472ZM25.8364 0H29.2656V3.90029H25.3667V0H25.8364ZM34.292 1.04472H32.4365V2.85557H34.292V1.04472ZM31.9432 0H35.3724V3.90029H31.45V0H31.9432ZM40.3987 1.04472H38.5432V2.85557H40.3987V1.04472ZM38.05 0H41.4557V3.90029H37.5802V0H38.05ZM46.482 1.04472H44.6265V2.85557H46.4585L46.482 1.04472ZM44.1332 0H47.5624V3.90029H43.593V0H44.1332ZM58.719 1.04472H56.8635V2.85557H58.719V1.04472ZM56.3703 0H59.7759V3.90029H55.7361V0H56.3703Z" fill="white"/>
<path fill-rule="evenodd" clip-rule="evenodd" d="M91.0142 52.0736H98.9999L95.007 59.8509L91.0142 52.0736ZM91.0142 50.2627H98.9999L95.007 42.4854L91.0142 50.2627Z" fill="white"/>
</g>
<defs>
<clipPath id="clip0_25_121">
<rect width="99" height="95" fill="white"/>
</clipPath>
</defs>
</svg>
