<svg width="98" height="95" viewBox="0 0 98 95" fill="none" xmlns="http://www.w3.org/2000/svg">
<path fill-rule="evenodd" clip-rule="evenodd" d="M35.7975 19.2459H25.3799C24.4535 19.2492 23.5659 19.6163 22.9095 20.2674C22.2829 20.8827 21.9161 21.7132 21.884 22.589V34.1274C21.884 35.051 22.2523 35.9367 22.9079 36.5898C23.5635 37.2429 24.4527 37.6098 25.3799 37.6098H35.7975C36.2528 37.6089 36.7035 37.5181 37.1235 37.3428C37.5435 37.1675 37.9245 36.911 38.2445 36.5883C38.8982 35.9344 39.2666 35.0501 39.27 34.1274V22.7051C39.2639 21.7895 38.8961 20.9132 38.2462 20.2658C37.5963 19.6184 36.7165 19.252 35.7975 19.2459ZM41.3442 51.0751C41.0314 50.7743 40.6136 50.6063 40.1789 50.6063C39.7442 50.6063 39.3264 50.7743 39.0136 51.0751C38.8579 51.2307 38.7346 51.4154 38.6506 51.6185C38.5666 51.8217 38.5237 52.0394 38.5242 52.2591V55.7183C38.5237 55.938 38.5666 56.1557 38.6506 56.3588C38.7346 56.562 38.8579 56.7467 39.0136 56.9023C39.3264 57.203 39.7442 57.3711 40.1789 57.3711C40.6136 57.3711 41.0314 57.203 41.3442 56.9023C41.5211 56.7567 41.6661 56.5765 41.7704 56.3729C41.8746 56.1692 41.9358 55.9464 41.9501 55.7183V52.468C41.9507 52.2483 41.9077 52.0307 41.8237 51.8275C41.7398 51.6243 41.6164 51.4396 41.4607 51.284L41.3442 51.0751ZM40.1556 48.1731C40.6934 48.1745 41.2256 48.282 41.7216 48.4892C42.2176 48.6963 42.6675 48.9992 43.0455 49.3803C43.4436 49.7658 43.7585 50.2282 43.9709 50.7392C44.1833 51.2502 44.2887 51.799 44.2807 52.352V55.7183C44.2792 56.254 44.1714 56.7842 43.9634 57.2782C43.7554 57.7723 43.4514 58.2205 43.0688 58.5971C42.3004 59.357 41.2616 59.7834 40.1789 59.7834C39.0962 59.7834 38.0574 59.357 37.289 58.5971C36.898 58.2257 36.5869 57.779 36.3745 57.2841C36.1622 56.7892 36.0531 56.2565 36.0538 55.7183V52.468C36.0426 51.9112 36.1465 51.3579 36.359 50.8427C36.5715 50.3275 36.888 49.8614 37.289 49.4732C38.0468 48.7091 39.0774 48.2751 40.1556 48.2659V48.1731ZM25.3799 16.0421H35.7975C37.5508 16.0658 39.2246 16.7745 40.4586 18.0154C41.7022 19.2442 42.4061 20.9138 42.4162 22.6586V34.1274C42.4162 35.8945 41.7115 37.5893 40.4572 38.8388C39.2028 40.0884 37.5015 40.7904 35.7275 40.7904H25.3799C24.4976 40.7965 23.6228 40.6287 22.8059 40.2966C21.989 39.9645 21.2461 39.4746 20.6201 38.8553C19.994 38.236 19.4972 37.4994 19.1581 36.688C18.8191 35.8765 18.6445 35.0063 18.6445 34.1274V22.7051C18.6546 20.9603 19.3586 19.2906 20.6022 18.0619C21.2233 17.4251 21.9659 16.9184 22.7864 16.5715C23.6068 16.2247 24.4886 16.0447 25.3799 16.0421ZM14.333 9.7041H46.9608V69.9265H14.333V9.7041Z" fill="white"/>
<path d="M46.8443 73.9429H14.333V94.9998H46.8443V73.9429Z" fill="white"/>
<path d="M83.6903 73.9429H51.179V94.9998H83.6903V73.9429Z" fill="white"/>
<path fill-rule="evenodd" clip-rule="evenodd" d="M62.2258 19.2459H72.6434C73.5625 19.252 74.4422 19.6184 75.0921 20.2658C75.742 20.9132 76.1099 21.7895 76.116 22.7051V34.1274C76.1126 35.0501 75.7442 35.9344 75.0905 36.5883C74.4729 37.2124 73.6392 37.5778 72.76 37.6098H62.2258C61.2987 37.6098 60.4095 37.2429 59.7539 36.5898C59.0983 35.9367 58.73 35.051 58.73 34.1274V22.7051C58.7621 21.8293 59.1289 20.9987 59.7555 20.3835C60.4119 19.7324 61.2995 19.3653 62.2258 19.362V19.2459ZM56.6558 51.0751C56.9755 50.7681 57.4004 50.5938 57.8444 50.5875C58.065 50.587 58.2835 50.6298 58.4874 50.7134C58.6914 50.7971 58.8767 50.92 59.033 51.0751C59.1887 51.2307 59.312 51.4154 59.396 51.6185C59.48 51.8217 59.5229 52.0394 59.5224 52.2591V55.7183C59.5229 55.938 59.48 56.1557 59.396 56.3588C59.312 56.562 59.1887 56.7467 59.033 56.9023C58.8767 57.0574 58.6914 57.1803 58.4874 57.2639C58.2835 57.3476 58.065 57.3904 57.8444 57.3898C57.4004 57.3836 56.9755 57.2093 56.6558 56.9023C56.5001 56.7467 56.3768 56.562 56.2928 56.3588C56.2088 56.1557 56.1659 55.938 56.1664 55.7183V52.468C56.1659 52.2483 56.2088 52.0307 56.2928 51.8275C56.3768 51.6243 56.5001 51.4396 56.6558 51.284V51.0751ZM57.8444 48.1731C57.3066 48.1745 56.7744 48.282 56.2784 48.4892C55.7824 48.6963 55.3325 48.9992 54.9545 49.3803C54.1989 50.1503 53.7727 51.1823 53.7659 52.2591V55.7183C53.7727 56.795 54.1989 57.8271 54.9545 58.5971C55.7274 59.3498 56.7635 59.7743 57.8444 59.7811C58.9263 59.7792 59.9641 59.354 60.7343 58.5971C61.1168 58.2205 61.4209 57.7723 61.6289 57.2782C61.8369 56.7842 61.9447 56.254 61.9462 55.7183V52.468C61.9393 51.3913 61.5132 50.3592 60.7576 49.5892C60.3876 49.1833 59.9385 48.8566 59.4377 48.6291C58.9368 48.4015 58.3947 48.278 57.8444 48.2659V48.1731ZM72.6434 16.0421H62.2258C60.4725 16.0658 58.7987 16.7745 57.5647 18.0154C56.3211 19.2442 55.6172 20.9138 55.6071 22.6586V34.1274C55.6071 35.8945 56.3118 37.5893 57.5661 38.8388C58.8205 40.0884 60.5218 40.7904 62.2958 40.7904H72.7134C74.4639 40.7753 76.1381 40.0748 77.3745 38.8402C78.6034 37.6017 79.3047 35.9382 79.3321 34.197V22.7051C79.3199 20.9417 78.6113 19.254 77.3596 18.0071C76.1078 16.7601 74.4136 16.0542 72.6434 16.0421ZM83.6903 9.7041H51.2722V69.9265H83.6903V9.7041Z" fill="white"/>
<path fill-rule="evenodd" clip-rule="evenodd" d="M4.21831 0H10.4875H87.5358H93.805V6.24511V88.7549H98V95H93.805H87.5358V88.7549V6.24511H10.4875V88.7549V95H4.21831H0V88.7549H4.21831V6.24511V0Z" fill="white"/>
</svg>
