<svg width="105" height="95" viewBox="0 0 105 95" fill="none" xmlns="http://www.w3.org/2000/svg">
<g clip-path="url(#clip0_25_92)">
<path fill-rule="evenodd" clip-rule="evenodd" d="M27.5442 47.9643C27.7748 47.6074 27.8653 47.1772 27.7983 46.757C27.7983 44.2961 27.7983 39.7922 27.7983 37.726H37.9425V40.7441C37.9425 40.9995 37.7345 40.9066 38.2198 40.9066C39.7171 40.8031 41.2213 40.8732 42.7026 41.1155L42.9799 41.2316H43.2803C44.1835 41.4167 45.0605 41.713 45.8914 42.1138H46.1456C46.5203 42.3865 46.9441 42.5835 47.3934 42.6942V37.8189H57.3989V49.4269C57.9995 49.3654 58.5945 49.2567 59.1782 49.1019H59.4786C60.834 48.7416 62.2594 48.7416 63.6148 49.1019C64.3979 49.2495 65.17 49.4511 65.9255 49.7055C66.2258 49.9007 66.5649 50.0275 66.9192 50.0769V37.8189H73.1813C74.198 37.8189 74.2904 37.1688 75.0299 36.542L77.3406 34.9401C78.1656 34.4056 79.0496 33.9693 79.9748 33.64C81.1892 33.1386 82.4772 32.8406 83.7876 32.7578C84.5511 32.6273 85.3238 32.5575 86.0983 32.5488H86.6298C87.8723 32.6817 89.1065 32.8833 90.327 33.1524L91.9676 33.8025C92.416 33.9737 92.849 34.1834 93.2616 34.4293C93.4227 34.5435 93.5927 34.6444 93.77 34.7311C94.6034 35.1943 95.3791 35.7555 96.0807 36.4027L97.3747 37.6796C97.978 38.2864 98.5056 38.9646 98.946 39.6994C98.95 39.7844 98.95 39.8697 98.946 39.9547L99.2926 40.4191C100.078 41.7656 100.148 42.3924 100.702 43.4371C101.47 43.2251 102.171 42.8173 102.736 42.2531C103.226 41.9556 103.651 41.5606 103.983 41.0923C103.983 40.8834 104.214 40.7441 104.307 40.5816C104.838 39.4125 105.045 38.1213 104.908 36.8438C104.789 36.285 104.635 35.7344 104.446 35.1955L103.891 34.1972C103.582 33.6879 103.191 33.233 102.736 32.8506C101.834 32.0381 99.2695 30.529 98.1141 29.6933L88.1086 22.9142H87.8545L87.5541 22.6588L84.7581 20.7783C84.6074 20.6542 84.4448 20.5453 84.2728 20.4533L83.1868 19.6175C83.0188 19.5213 82.8636 19.4043 82.7246 19.2693L82.2163 18.9442L82.0083 18.7817C81.4306 18.2942 80.7374 17.9924 80.1366 17.5281L79.9517 17.3655C79.8083 17.2559 79.6534 17.1625 79.4896 17.087C78.986 16.7653 78.5 16.4166 78.0338 16.0422L77.0864 15.4386L76.578 15.1136L71.4482 11.608C71.0092 11.2597 70.1773 10.8186 69.692 10.4936L68.0283 9.28636L67.7279 9.12385L67.5431 8.96134C67.462 8.88383 67.3682 8.82099 67.2658 8.77561C66.9222 8.5701 66.5905 8.34532 66.2721 8.10234L65.371 7.4523L64.8395 7.15049L61.4658 4.82888C61.1224 4.62321 60.7907 4.39844 60.4722 4.15562L60.2411 4.01632L55.6196 0.882159C54.4238 0.123552 53.0007 -0.188709 51.599 -5.06826e-05C50.7246 0.115184 49.8788 0.390596 49.1034 0.81251C48.4101 1.18397 47.8324 1.71794 47.1854 2.13582L42.148 5.59501L40.5767 6.68617H40.4612L36.5791 9.42566C35.909 9.88998 35.2389 10.2614 34.615 10.7722C33.9911 11.2829 34.0142 11.1436 33.6214 11.4222L33.4134 11.608L31.7035 12.7456L31.4955 12.9313L29.1848 14.3939L28.6995 14.7189L27.729 15.5547C27.5442 15.7172 27.729 15.5547 27.4517 15.7172L21.9291 19.4086L20.1498 20.5926L15.251 23.9589L14.2805 24.6554C14.1269 24.7618 13.9645 24.855 13.7953 24.934L11.8542 26.2805C11.7661 26.3052 11.6863 26.3533 11.6232 26.4198H11.5538C10.953 26.8609 10.306 27.1627 9.72835 27.627L4.62162 31.2719L4.09015 31.5738L3.628 31.922C2.64371 32.5207 1.78758 33.3098 1.1093 34.2436C0.843745 34.5687 0.654225 34.9495 0.554718 35.358L0.439181 35.7062C0.0801688 36.9734 0.0801688 38.3161 0.439181 39.5833C0.537007 39.7627 0.621951 39.9489 0.693362 40.1405C0.762493 40.348 0.847473 40.5498 0.947544 40.7441C1.03063 40.9219 1.13967 41.0862 1.27105 41.2316C2.06984 42.3561 3.16665 43.2329 4.43676 43.7622C6.95465 44.1928 9.5158 44.3098 12.0622 44.1104V56.3685L13.102 56.2292C14.2274 56.111 15.3638 56.158 16.4757 56.3685C16.7996 56.4074 17.1177 56.4854 17.4231 56.6006C18.061 56.8377 18.6858 57.109 19.2948 57.4132C19.7587 57.637 20.2066 57.893 20.635 58.1793L22.553 59.8509C22.784 60.2223 22.9227 60.2688 23.3155 60.8492C23.5934 61.1903 23.8409 61.5555 24.0549 61.9403C24.2167 62.3118 24.3784 62.869 24.8406 62.66C25.3027 62.4511 24.6095 62.7993 24.9561 62.66C25.3565 62.4472 25.7842 62.291 26.227 62.1957L26.8972 61.9635C26.8292 61.4064 26.6483 60.8691 26.3657 60.3848C26.108 59.702 25.9221 58.9939 25.8111 58.2722V58.0632V57.924C25.5472 56.5785 25.4926 55.2001 25.6493 53.8379C25.7811 52.9033 25.9819 51.9799 26.2501 51.0752C26.2501 50.8895 26.2501 50.7734 26.3657 50.6341L26.8509 49.4733C27.0589 48.8697 27.4748 48.684 27.5442 47.9875" fill="white"/>
<path fill-rule="evenodd" clip-rule="evenodd" d="M68.9755 74.5232L67.0114 73.3624L65.625 72.8053C65.4973 72.7528 65.3737 72.6907 65.2553 72.6195C63.0869 71.9968 60.7962 71.9409 58.6003 72.457L58.1151 72.5963L56.174 73.4321C55.532 73.7449 54.9208 74.118 54.3486 74.5465C54.1175 74.7786 54.3486 74.5465 53.9557 74.8947C53.5629 75.2429 53.4936 75.3358 53.1701 75.568C53.1701 75.2429 53.1701 75.4054 52.9159 75.1501L52.6617 74.7554C52.4539 74.5343 52.2681 74.2933 52.1071 74.0357C51.9223 73.7107 51.7143 73.641 51.5295 73.3392C51.3426 73.0958 51.142 72.8632 50.9287 72.6427L48.6179 70.5997C48.1998 70.2706 47.751 69.9829 47.2777 69.7407L46.4689 69.2532C45.7249 68.8816 44.9521 68.571 44.1582 68.3246H43.9271L42.6331 67.9763C40.5317 67.6031 38.3729 67.7223 36.3248 68.3246C35.6237 68.5025 34.9424 68.7514 34.2913 69.0675C34.1281 68.7055 33.8921 68.3814 33.5981 68.1156C33.0218 67.4891 32.3213 66.9908 31.5416 66.653L30.1551 66.3048C29.4468 66.0905 28.6914 66.0905 27.983 66.3048C27.5128 66.3601 27.0533 66.4853 26.6197 66.6762C25.7161 67.188 24.929 67.8839 24.309 68.7192C23.6483 69.7121 23.2956 70.8796 23.2956 72.0739C23.2956 73.2683 23.6483 74.4358 24.309 75.4287C24.7799 76.115 25.3758 76.7058 26.0651 77.1699C25.8528 77.5269 25.6674 77.8994 25.5105 78.2842C25.5105 78.4468 25.3488 78.6557 25.2795 78.8646L25.1639 79.2129L24.7942 80.1415C24.5862 80.8148 24.3321 80.6291 23.893 81.0702L23.5002 81.4184C23.246 81.1862 22.4604 80.0487 21.952 79.5379L19.9417 77.7735L19.6644 77.611C19.0231 77.2419 18.3503 76.9311 17.654 76.6823L17.215 76.6127C15.5594 76.1482 13.8191 76.0767 12.1314 76.4037L11.5537 76.4734C11.3516 76.5243 11.1573 76.6024 10.976 76.7055C10.5883 76.8244 10.2098 76.9718 9.84372 77.1466L7.99513 78.3539C7.74095 78.5628 7.99513 78.4932 7.62541 78.7253C7.2557 78.9575 7.20948 79.12 6.81666 79.4683L6.07722 80.2808C5.93415 80.4217 5.81683 80.5867 5.73061 80.7684L4.92185 81.9988C4.38415 82.8952 3.95736 83.8541 3.65094 84.8544L3.28122 86.0384C3.11947 86.6884 3.11947 87.3849 2.91151 87.9885C2.65775 89.198 2.65775 90.4472 2.91151 91.6567C3.04172 92.2549 3.28842 92.8213 3.6374 93.3234C3.98639 93.8254 4.43077 94.2531 4.94496 94.5819C5.53152 94.8791 6.18323 95.0228 6.83976 94.9998H70.801C71.2401 94.9998 71.4249 94.9998 71.7253 94.9998C72.0257 94.9998 72.1875 94.9998 72.6496 94.9998H98.4375C99.5899 95.016 100.719 94.6756 101.673 94.0247C102.183 93.6552 102.648 93.2266 103.059 92.7478C103.221 92.5157 103.198 92.4692 103.382 92.2371L103.59 91.9817L103.96 91.262C104.233 90.6117 104.464 89.9449 104.653 89.2654C104.978 87.4569 105.025 85.6092 104.792 83.7864C104.792 83.3685 104.792 83.7864 104.63 83.2989L104.307 80.9773C104.111 79.9452 103.841 78.9287 103.498 77.936L101.118 72.666L98.1602 68.7889C97.7211 68.2781 97.1204 67.8138 96.6582 67.3495L94.8096 65.9797C94.6783 65.8962 94.539 65.8262 94.3937 65.7708C94.2545 65.7014 94.1292 65.607 94.024 65.4922L93.608 65.26L93.169 65.0047H92.9841L92.7531 64.8654C91.7852 64.3953 90.7705 64.0296 89.726 63.7742C86.7911 62.9675 83.6874 63.0239 80.7834 63.9367L79.4894 64.3778C79.2957 64.4714 79.0948 64.5491 78.8886 64.61L76.5779 65.8172C75.5173 66.4797 74.533 67.2583 73.6432 68.1388L70.2465 72.3177C69.8875 72.8292 69.5633 73.3644 69.2759 73.9196C69.1373 74.1982 69.0911 74.2679 68.9755 74.5232Z" fill="white"/>
<path fill-rule="evenodd" clip-rule="evenodd" d="M7.18651 67.1406C7.13021 67.9822 7.20032 68.8274 7.39448 69.648L7.90284 70.9016C8.50773 72.1927 9.51316 73.2517 10.7682 73.9197L11.5538 74.2912C11.8908 74.4976 12.2701 74.6246 12.663 74.6626C14.115 74.9847 15.6302 74.8551 17.0072 74.2912C17.3932 74.1571 17.7587 73.9696 18.0932 73.734C18.4575 73.5251 18.7918 73.2673 19.0868 72.9678C19.7839 72.3231 20.3287 71.5299 20.6812 70.6462C21.3441 68.8712 21.3849 66.9222 20.7968 65.1208C20.7105 64.9353 20.6101 64.7568 20.4964 64.5869C20.196 64.0297 20.4964 64.3547 19.988 63.7047V63.5654C19.5359 62.9139 18.9726 62.348 18.3243 61.8938C17.9286 61.5868 17.483 61.3512 17.0072 61.1973H16.8685C16.634 61.0359 16.3648 60.9325 16.0829 60.8955C14.7104 60.5911 13.2818 60.6633 11.9466 61.1045C11.326 61.3415 10.7363 61.6533 10.1905 62.0331L9.24307 62.6831C8.89646 62.9385 9.24307 62.7992 8.89646 63.1475C8.54985 63.4957 8.61917 63.3332 8.45742 63.5421L7.4638 65.5852C7.23794 66.0889 7.11986 66.6346 7.11719 67.1871" fill="white"/>
<path fill-rule="evenodd" clip-rule="evenodd" d="M73.6435 48.7538C73.6289 49.7604 73.7297 50.7653 73.9439 51.7487L74.1057 52.1434C74.3402 53.2083 74.746 54.2278 75.3072 55.1615L77.826 58.1795C77.826 58.1795 77.826 58.1795 78.0339 58.3188L79.6745 59.4564C80.4726 59.9095 81.3275 60.253 82.2164 60.4779L82.5861 60.594C84.2204 60.9926 85.918 61.0558 87.5773 60.7797L88.386 60.5708C89.0843 60.3939 89.765 60.153 90.4195 59.8511C90.7459 59.7282 91.0626 59.5807 91.3669 59.41C91.5286 59.2707 91.3669 59.41 91.5517 59.2475C92.1323 58.9167 92.6883 58.5443 93.2155 58.1331C93.3772 57.9706 93.2155 57.9474 93.5621 57.7384C94.5498 56.8564 95.3377 55.7718 95.8728 54.5578C95.9477 54.3978 96.0326 54.2427 96.127 54.0935C96.2974 53.775 96.4367 53.4407 96.5429 53.0952L96.7278 52.5613C97.3666 50.284 97.3666 47.8737 96.7278 45.5964L96.4505 44.8535C96.1113 43.8855 95.6367 42.9709 95.041 42.1373C94.7199 41.6643 94.3479 41.2283 93.9318 40.8372C93.4466 40.1175 93.6545 40.605 93.2617 40.1407C93.1626 39.9948 93.0372 39.8688 92.892 39.7692L92.6609 39.6299L90.6275 38.3298C89.9573 37.9816 89.7263 37.9584 89.0793 37.6798C87.0004 36.9842 84.7734 36.8639 82.6323 37.3315L81.5693 37.6333C81.1996 37.7959 80.8299 37.8887 80.5064 38.028C80.1829 38.1673 79.9056 38.3298 79.5128 38.5156C79.12 38.7013 78.3805 39.3746 77.7797 39.7228C77.1789 40.071 76.6244 40.8372 76.2778 41.1622L75.2148 42.6944C75.0531 42.9962 74.9606 43.0195 74.7989 43.3677C74.7413 43.5462 74.6638 43.7175 74.5678 43.8785C74.3585 44.1965 74.2097 44.5507 74.1288 44.9232C73.6762 46.1494 73.4416 47.446 73.4355 48.7538" fill="white"/>
<path fill-rule="evenodd" clip-rule="evenodd" d="M29.7858 55.44C29.7074 56.3998 29.8334 57.3653 30.1555 58.2723C30.2716 58.7966 30.434 59.3093 30.6408 59.8046C30.8738 60.2968 31.1442 60.7702 31.4495 61.2208C32.1386 62.2561 32.9891 63.1732 33.9682 63.937L34.2455 64.146C34.364 64.2171 34.4875 64.2792 34.6152 64.3317L34.985 64.5871C36.1692 65.2775 37.4997 65.6754 38.867 65.7479C39.3916 65.939 39.9538 66.0027 40.5076 65.9336C40.9467 65.9336 40.5076 65.7943 41.2471 65.7479C42.0968 65.7237 42.935 65.5427 43.7196 65.2139C44.1362 65.0655 44.5384 64.879 44.9211 64.6567L46.6311 63.4959L48.3873 61.4994L49.7506 58.6206C50.0348 57.7192 50.1828 56.7801 50.1896 55.8346C50.1826 54.7994 50.0428 53.7694 49.7737 52.7701C49.592 52.2305 49.3758 51.7032 49.1267 51.1914C49.0151 50.9916 48.9223 50.7817 48.8494 50.5646C48.4284 49.7375 47.847 49.0034 47.1395 48.4055C46.7928 48.1269 46.7697 47.9412 46.4231 47.7322L43.6965 46.1303C42.8126 45.8329 41.8978 45.6381 40.9698 45.5499C40.6001 45.5499 40.9698 45.4106 40.577 45.4106H39.3985C39.0288 45.4106 39.3985 45.4106 39.0057 45.5499C38.142 45.6239 37.2894 45.7952 36.4638 46.0607C36.3217 46.1389 36.1751 46.2087 36.0248 46.2696C34.4973 46.874 33.1518 47.8659 32.1196 49.1484C31.8193 49.4967 31.6344 49.8681 31.3571 50.2396C31.1172 50.6002 30.9084 50.9808 30.7332 51.3772C30.095 52.6769 29.7629 54.1067 29.7627 55.5561" fill="white"/>
<path fill-rule="evenodd" clip-rule="evenodd" d="M53.0086 61.5224C52.9513 62.3762 52.9978 63.2338 53.1473 64.0762L54.6493 67.0943C54.8779 67.4169 55.1329 67.7198 55.4118 67.9997C55.7411 68.3459 56.105 68.6571 56.4979 68.9283L56.6596 69.0444C57.9737 69.8778 59.4758 70.3649 61.0269 70.4606C62.1433 70.5498 63.2653 70.3831 64.3082 69.9731C64.6066 69.9264 64.8865 69.7979 65.1169 69.6016C65.556 69.3462 65.787 69.3462 66.1105 69.1141C66.943 68.5503 67.6769 67.8522 68.2826 67.0478C68.9712 66.088 69.4802 65.0102 69.7846 63.8672C70.1362 62.3263 70.0481 60.7169 69.5304 59.224C69.331 58.2892 68.902 57.4193 68.2826 56.6935L67.5432 55.7881C67.2659 55.4398 67.3121 55.5791 66.9886 55.3237C66.6651 55.0684 67.0117 55.2541 67.0117 55.1148L66.6882 54.8826C66.0335 54.4428 65.3368 54.0695 64.6085 53.7683C62.5467 53.079 60.3064 53.1614 58.3002 54.0004C58.0542 54.0827 57.8147 54.1836 57.5839 54.3022L56.4747 55.0219C56.2206 55.2541 56.4747 55.2077 56.0357 55.4166C55.5967 55.6255 56.0357 55.4166 55.7122 55.6488L55.5042 55.8809L54.7417 56.7863C54.2895 57.415 53.9242 58.1022 53.6556 58.8294L53.4246 59.433C53.2307 60.1126 53.1296 60.8155 53.1242 61.5224" fill="white"/>
</g>
<defs>
<clipPath id="clip0_25_92">
<rect width="105" height="95" fill="white"/>
</clipPath>
</defs>
</svg>
